# xmcd
#
# Track frame offsets: 
#        150
#        30319
#        51302
#        76648
#        99548
#        116308
#        130174
#        154624
#        166319
#        189289
#        210530
#        230959
#        250685
#
# Disc length: 3638 seconds
#
# Revision: 0
# Processed by: cddbd v1.5.2PL0 Copyright (c) Steve Scherf et al.
# Submitted via: ExactAudioCopyFreeDBPlugin 1.0
#
DISCID=990e340d
DTITLE=捷奏 - DTS捷奏CAV试音碟
DYEAR=2005
DGENRE=DTS
TTITLE0=百鸟朝凤
TTITLE1=草原之夜
TTITLE2=出水莲
TTITLE3=桐乡之夜
TTITLE4=家乡
TTITLE5=假如
TTITLE6=青藏高原
TTITLE7=日本小调
TTITLE8=我的祖国
TTITLE9=西班牙斗牛士
TTITLE10=相思风雨中
TTITLE11=羞答答的玫瑰静悄悄地开
TTITLE12=再别康桥
EXTD=
EXTT0=
EXTT1=
EXTT2=
EXTT3=
EXTT4=
EXTT5=
EXTT6=
EXTT7=
EXTT8=
EXTT9=
EXTT10=
EXTT11=
EXTT12=
PLAYORDER=
